<?xml version="1.0" encoding="UTF-8" standalone="no"?>
<!-- Created with Inkscape (http://www.inkscape.org/) -->

<svg
   width="58.20816mm"
   height="39.04668mm"
   viewBox="0 0 58.20816 39.046681"
   version="1.1"
   id="svg1"
   inkscape:version="1.3 (0e150ed6c4, 2023-07-21)"
   sodipodi:docname="logo.svg"
   xmlns:inkscape="http://www.inkscape.org/namespaces/inkscape"
   xmlns:sodipodi="http://sodipodi.sourceforge.net/DTD/sodipodi-0.dtd"
   xmlns="http://www.w3.org/2000/svg"
   xmlns:svg="http://www.w3.org/2000/svg">
  <sodipodi:namedview
     id="namedview1"
     pagecolor="#ffffff"
     bordercolor="#666666"
     borderopacity="1.0"
     inkscape:showpageshadow="2"
     inkscape:pageopacity="0.0"
     inkscape:pagecheckerboard="0"
     inkscape:deskcolor="#d1d1d1"
     inkscape:document-units="mm"
     inkscape:zoom="0.68684764"
     inkscape:cx="109.92249"
     inkscape:cy="74.980238"
     inkscape:window-width="1920"
     inkscape:window-height="1009"
     inkscape:window-x="3832"
     inkscape:window-y="1061"
     inkscape:window-maximized="1"
     inkscape:current-layer="layer1" />
  <defs
     id="defs1">
    <clipPath
       clipPathUnits="userSpaceOnUse"
       id="clipPath8">
      <path
         d="M 166.287,596.986 H 428.99 V 773.208 H 166.287 Z"
         transform="translate(-182.8867,-649.89322)"
         id="path8" />
    </clipPath>
    <clipPath
       clipPathUnits="userSpaceOnUse"
       id="clipPath10">
      <path
         d="M 166.287,596.986 H 428.99 V 773.208 H 166.287 Z"
         transform="translate(-202.73491,-623.49911)"
         id="path10" />
    </clipPath>
    <clipPath
       clipPathUnits="userSpaceOnUse"
       id="clipPath12">
      <path
         d="M 166.287,596.986 H 428.99 V 773.208 H 166.287 Z"
         transform="translate(-223.36821,-648.16522)"
         id="path12" />
    </clipPath>
    <clipPath
       clipPathUnits="userSpaceOnUse"
       id="clipPath14">
      <path
         d="M 166.287,596.986 H 428.99 V 773.208 H 166.287 Z"
         transform="translate(-229.8613,-648.16522)"
         id="path14" />
    </clipPath>
    <clipPath
       clipPathUnits="userSpaceOnUse"
       id="clipPath16">
      <path
         d="M 166.287,596.986 H 428.99 V 773.208 H 166.287 Z"
         transform="translate(-248.97661,-658.84781)"
         id="path16" />
    </clipPath>
    <clipPath
       clipPathUnits="userSpaceOnUse"
       id="clipPath19">
      <path
         d="M 166.287,596.986 H 428.99 V 773.208 H 166.287 Z"
         transform="translate(-286.10691,-648.16522)"
         id="path19" />
    </clipPath>
    <clipPath
       clipPathUnits="userSpaceOnUse"
       id="clipPath21">
      <path
         d="M 166.287,596.986 H 428.99 V 773.208 H 166.287 Z"
         transform="translate(-320.14751,-658.84781)"
         id="path21" />
    </clipPath>
    <clipPath
       clipPathUnits="userSpaceOnUse"
       id="clipPath24">
      <path
         d="M 166.287,596.986 H 428.99 V 773.208 H 166.287 Z"
         transform="translate(-365.34181,-623.49911)"
         id="path24" />
    </clipPath>
    <clipPath
       clipPathUnits="userSpaceOnUse"
       id="clipPath26">
      <path
         d="M 166.287,596.986 H 428.99 V 773.208 H 166.287 Z"
         transform="translate(-381.94341,-643.08512)"
         id="path26" />
    </clipPath>
    <clipPath
       clipPathUnits="userSpaceOnUse"
       id="clipPath28">
      <path
         d="M 166.287,596.986 H 428.99 V 773.208 H 166.287 Z"
         transform="translate(-389.58981,-626.22232)"
         id="path28" />
    </clipPath>
    <clipPath
       clipPathUnits="userSpaceOnUse"
       id="clipPath32">
      <path
         d="M 166.287,596.986 H 428.99 V 773.208 H 166.287 Z"
         transform="translate(-184.8682,-603.26531)"
         id="path32" />
    </clipPath>
    <clipPath
       clipPathUnits="userSpaceOnUse"
       id="clipPath35">
      <path
         d="M 166.287,596.986 H 428.99 V 773.208 H 166.287 Z"
         transform="translate(-213.38481,-602.11931)"
         id="path35" />
    </clipPath>
    <clipPath
       clipPathUnits="userSpaceOnUse"
       id="clipPath40">
      <path
         d="M 166.287,596.986 H 428.99 V 773.208 H 166.287 Z"
         transform="translate(-281.26461,-596.98601)"
         id="path40" />
    </clipPath>
    <clipPath
       clipPathUnits="userSpaceOnUse"
       id="clipPath49">
      <path
         d="M 166.287,596.986 H 428.99 V 773.208 H 166.287 Z"
         transform="translate(-403.77831,-596.98601)"
         id="path49" />
    </clipPath>
    <clipPath
       clipPathUnits="userSpaceOnUse"
       id="clipPath53">
      <path
         d="M 166.287,596.986 H 428.99 V 773.208 H 166.287 Z"
         transform="translate(-312.14451,-735.86192)"
         id="path53" />
    </clipPath>
    <clipPath
       clipPathUnits="userSpaceOnUse"
       id="clipPath55">
      <path
         d="M 166.287,596.986 H 428.99 V 773.208 H 166.287 Z"
         transform="translate(-343.59861,-744.10852)"
         id="path55" />
    </clipPath>
  </defs>
  <g
     inkscape:label="Dark"
     inkscape:groupmode="layer"
     id="layer1"
     transform="translate(-75.935417,-128.85208)">
    <g
       id="g90"
       style="display:inline"
       transform="matrix(0.16618248,0,0,0.16618248,39.090103,113.63375)">
      <g
         id="g85"
         style="display:inline"
         inkscape:export-filename="logo-dark.svg"
         inkscape:export-xdpi="49.333858"
         inkscape:export-ydpi="49.333858">
        <path
           id="path56"
           d="m 0,0 v -1.466 h -4.452 v 1.1 c 0,2.356 -1.307,3.874 -3.559,3.874 -2.568,0 -3.772,-1.988 -3.772,-4.398 0,-1.99 0.786,-3.72 2.148,-5.656 1.885,-2.62 5.707,-7.383 7.593,-10.421 1.624,-2.566 2.304,-4.661 2.304,-7.647 0,-6.022 -2.617,-9.844 -8.221,-9.844 -5.394,0 -8.642,3.56 -8.642,8.012 v 2.199 l 4.452,-1.151 v -0.996 c 0,-1.938 1.414,-3.666 3.876,-3.666 2.618,0 3.927,1.78 3.927,4.818 0,1.886 -0.524,3.771 -2.043,6.127 -1.57,2.358 -4.818,6.076 -6.754,9.112 -2.358,3.717 -3.092,6.547 -3.092,9.165 0,5.445 3.3,8.849 8.328,8.849 C -2.986,8.011 0,4.766 0,0"
           style="fill:#d4c8c2;fill-opacity:1;fill-rule:nonzero;stroke:none"
           transform="matrix(1.3333333,0,0,-1.3333333,243.84893,255.99573)"
           clip-path="url(#clipPath8)" />
        <path
           id="path57"
           d="m 0,0 c 0,-4.818 -3.562,-7.75 -7.959,-7.75 -4.452,0 -7.96,2.932 -7.96,7.75 v 17.334 c 0,4.818 3.508,7.75 7.96,7.75 4.397,0 7.959,-2.932 7.959,-7.75 z m -11.417,0.262 c 0,-2.2 1.468,-3.404 3.458,-3.404 1.989,0 3.403,1.204 3.403,3.404 v 16.811 c 0,2.198 -1.414,3.404 -3.403,3.404 -1.99,0 -3.458,-1.206 -3.458,-3.404 z"
           style="fill:#d4c8c2;fill-opacity:1;fill-rule:nonzero;stroke:none"
           transform="matrix(1.3333333,0,0,-1.3333333,270.3132,291.18787)"
           clip-path="url(#clipPath10)" />
        <path
           id="path58"
           d="m 0,0 v -31.998 h -3.194 l -0.786,1.782 c -1.572,-1.468 -3.51,-2.2 -5.551,-2.2 -3.614,0 -6.652,2.512 -6.652,7.75 V 0 h 4.662 v -23.67 c 0,-2.776 1.151,-4.138 3.299,-4.138 1.204,0 2.409,0.524 3.56,1.624 V 0 Z"
           style="fill:#d4c8c2;fill-opacity:1;fill-rule:nonzero;stroke:none"
           transform="matrix(1.3333333,0,0,-1.3333333,297.82427,258.29973)"
           clip-path="url(#clipPath12)" />
        <path
           id="path59"
           d="M 0,0 V 5.604 L 4.504,7.487 V 0 H 9.845 V -3.928 H 4.504 v -20.214 c 0,-2.41 1.362,-3.876 3.404,-3.876 0.838,0 1.571,0.262 2.357,0.838 l 1.256,-3.98 c -1.152,-0.838 -2.724,-1.256 -4.347,-1.256 -5.026,0 -7.174,3.77 -7.174,8.274 V -3.928 H -3.456 V 0 Z"
           style="fill:#d4c8c2;fill-opacity:1;fill-rule:nonzero;stroke:none"
           transform="matrix(1.3333333,0,0,-1.3333333,306.48173,258.29973)"
           clip-path="url(#clipPath14)" />
        <path
           id="path60"
           d="m 0,0 v -11.939 c 1.466,1.098 3.246,1.674 5.027,1.674 3.666,0 6.704,-2.512 6.704,-7.75 V -42.681 H 7.069 v 23.671 c 0,2.619 -0.994,4.137 -3.351,4.137 -1.362,0 -2.566,-0.576 -3.718,-1.676 v -26.132 h -4.662 v 41.529 z"
           style="fill:#d4c8c2;fill-opacity:1;fill-rule:nonzero;stroke:none"
           transform="matrix(1.3333333,0,0,-1.3333333,331.9688,244.05627)"
           clip-path="url(#clipPath16)" />
        <path
           id="path61"
           d="m 0,0 v -4.662 h -8.746 v -12.881 h 6.18 v -4.662 h -6.18 V -36.344 H 0 v -4.661 H -13.563 V 0 Z"
           style="fill:#d4c8c2;fill-opacity:1;fill-rule:nonzero;stroke:none"
           transform="matrix(1.3333333,0,0,-1.3333333,371.9792,246.29)" />
        <path
           id="path62"
           d="m 0,0 0.734,-1.834 c 1.622,1.466 3.718,2.252 5.76,2.252 3.666,0 6.704,-2.514 6.704,-7.75 V -31.998 H 8.536 v 23.67 c 0,2.62 -0.994,4.138 -3.352,4.138 -1.362,0 -2.566,-0.576 -3.718,-1.676 V -31.998 H -3.193 V 0 Z"
           style="fill:#d4c8c2;fill-opacity:1;fill-rule:nonzero;stroke:none"
           transform="matrix(1.3333333,0,0,-1.3333333,381.47587,258.29973)"
           clip-path="url(#clipPath19)" />
        <path
           id="path63"
           d="m 0,0 v -42.681 h -3.194 l -0.786,1.992 c -1.624,-1.52 -3.718,-2.41 -5.814,-2.41 -3.508,0 -6.598,2.514 -6.598,7.75 v 17.334 c 0,5.238 3.09,7.75 6.598,7.75 1.834,0 3.614,-0.68 5.132,-1.832 v 10.945 z m -11.731,-34.354 c 0,-2.617 0.944,-4.137 3.248,-4.137 1.414,0 2.67,0.628 3.821,1.834 v 19.952 c -1.151,1.205 -2.407,1.832 -3.821,1.832 -2.304,0 -3.248,-1.518 -3.248,-4.137 z"
           style="fill:#d4c8c2;fill-opacity:1;fill-rule:nonzero;stroke:none"
           transform="matrix(1.3333333,0,0,-1.3333333,426.86333,244.05627)"
           clip-path="url(#clipPath21)" />
        <path
           id="path64"
           d="m 0,0 v -4.662 h -9.321 v -14.243 h 6.862 v -4.661 h -6.862 v -17.439 h -4.818 V 0 Z"
           style="fill:#d4c8c2;fill-opacity:1;fill-rule:nonzero;stroke:none"
           transform="matrix(1.3333333,0,0,-1.3333333,465.12493,246.29)" />
        <path
           id="path65"
           d="m 0,0 c 0,-4.818 -3.562,-7.75 -7.959,-7.75 -4.452,0 -7.96,2.932 -7.96,7.75 v 17.334 c 0,4.818 3.508,7.75 7.96,7.75 4.397,0 7.959,-2.932 7.959,-7.75 z m -11.415,0.262 c 0,-2.2 1.466,-3.404 3.456,-3.404 1.989,0 3.403,1.204 3.403,3.404 v 16.811 c 0,2.198 -1.414,3.404 -3.403,3.404 -1.99,0 -3.456,-1.206 -3.456,-3.404 z"
           style="fill:#d4c8c2;fill-opacity:1;fill-rule:nonzero;stroke:none"
           transform="matrix(1.3333333,0,0,-1.3333333,487.1224,291.18787)"
           clip-path="url(#clipPath24)" />
        <path
           id="path66"
           d="m 0,0 c -1.048,0.628 -2.042,0.89 -2.935,0.89 -1.779,0 -3.245,-0.942 -4.449,-2.722 v -25.086 h -4.662 V 5.08 h 3.196 l 0.89,-2.67 c 1.362,2.042 3.142,3.09 5.394,3.09 1.414,0 2.774,-0.42 3.876,-1.362 z"
           style="fill:#d4c8c2;fill-opacity:1;fill-rule:nonzero;stroke:none"
           transform="matrix(1.3333333,0,0,-1.3333333,509.25787,265.0732)"
           clip-path="url(#clipPath26)" />
        <path
           id="path67"
           d="m 0,0 v -2.565 c 0,-2.201 1.414,-3.404 3.352,-3.404 1.99,0 3.403,1.203 3.403,3.404 v 2.041 l 4.242,1.1 v -3.3 c 0,-4.817 -3.456,-7.749 -7.804,-7.749 -4.294,0 -7.697,2.932 -7.697,7.749 v 17.335 c 0,4.818 3.403,7.75 7.749,7.75 3.773,0 7.856,-2.042 7.856,-8.43 0,-3.928 -1.57,-6.703 -5.131,-9.637 C 4.504,3.038 2.514,1.572 0,0 m 0,4.504 c 1.518,0.996 2.775,1.938 3.613,2.724 2.147,1.99 2.985,3.823 2.985,6.387 0,3.3 -1.571,4.452 -3.405,4.452 C 1.204,18.067 0,16.705 0,14.401 Z"
           style="fill:#d4c8c2;fill-opacity:1;fill-rule:nonzero;stroke:none"
           transform="matrix(1.3333333,0,0,-1.3333333,519.45307,287.55693)"
           clip-path="url(#clipPath28)" />
        <path
           id="path68"
           d="M 0,0 2.78,-1.327 -17.292,-43.87 h 4.661 L 6.704,-3.198 9.483,-4.523 7.8,4.151 Z"
           style="fill:#f05c30;fill-opacity:1;fill-rule:nonzero;stroke:none"
           transform="matrix(1.3333333,0,0,-1.3333333,559.33853,242.4716)" />
        <path
           id="path69"
           d="m 0,0 -5.958,12.955 h 4.976 l 3.521,-7.55 z m 4.716,-10.251 4.041,-8.792 h 5.185 L 7.301,-4.804 Z"
           style="display:inline;fill:#d4c8c2;fill-opacity:1;fill-rule:nonzero;stroke:none"
           transform="matrix(1.3333333,0,0,-1.3333333,544.99347,275.57253)" />
        <path
           id="path70"
           d="m 0,0 v 1.232 h 2.502 v -1.305 h 1.797 v -2.16 H 2.502 V -6.28 h -7.447 c -1.052,0 -1.907,0.304 -2.537,0.928 -0.676,0.661 -0.886,1.464 -0.886,2.212 0,0.849 0.291,1.834 1.248,2.502 -0.333,0.543 -0.464,1.116 -0.464,1.682 0,0.74 0.21,1.537 0.913,2.183 0.632,0.587 1.451,0.899 2.474,0.899 H 2.502 V 1.957 H -4.192 C -4.749,1.957 -5.083,1.582 -5.083,0.928 -5.083,0.254 -4.764,0 -3.872,0 Z m 0,-4.119 v 1.952 h -4.937 c -0.27,0 -0.464,-0.06 -0.64,-0.205 -0.202,-0.159 -0.281,-0.42 -0.281,-0.747 0,-0.318 0.079,-0.58 0.289,-0.769 0.181,-0.157 0.37,-0.231 0.632,-0.231 z"
           style="fill:#f05c30;fill-opacity:1;fill-rule:nonzero;stroke:none"
           transform="matrix(1.3333333,0,0,-1.3333333,246.49093,318.16627)"
           clip-path="url(#clipPath32)" />
        <path
           id="path71"
           d="M 0,0 -5.083,-7.605 -10.173,0 h -2.508 v -10.173 h 2.472 v 5.953 l 3.98,-5.96 h 2.269 l 3.997,5.975 v -5.968 H 2.508 V 0 Z"
           style="fill:#f05c30;fill-opacity:1;fill-rule:nonzero;stroke:none"
           transform="matrix(1.3333333,0,0,-1.3333333,279.0996,312.9652)" />
        <path
           id="path72"
           d="M 0,0 C 0,0.863 0.167,1.763 0.653,2.589 1.493,4.04 3.095,5.047 5.38,5.047 h 3.951 c 2.298,0 3.9,-1.015 4.742,-2.481 0.478,-0.84 0.638,-1.768 0.638,-2.639 0,-0.863 -0.16,-1.776 -0.646,-2.602 -0.834,-1.451 -2.457,-2.458 -4.734,-2.458 H 5.38 c -2.277,0 -3.887,1.015 -4.727,2.458 C 0.145,-1.805 0,-0.892 0,0 m 5.394,-3.001 h 3.923 c 0.877,0 1.543,0.247 2.088,0.769 0.617,0.593 0.84,1.385 0.84,2.203 0,0.805 -0.223,1.595 -0.847,2.183 -0.544,0.514 -1.204,0.761 -2.081,0.761 H 5.394 C 4.525,2.915 3.856,2.668 3.313,2.154 2.705,1.574 2.473,0.79 2.473,-0.015 v -0.064 c 0,-0.797 0.232,-1.581 0.84,-2.161 0.543,-0.514 1.212,-0.761 2.081,-0.761"
           style="fill:#f05c30;fill-opacity:1;fill-rule:nonzero;stroke:none"
           transform="matrix(1.3333333,0,0,-1.3333333,284.51307,319.69427)"
           clip-path="url(#clipPath35)" />
        <path
           id="path73"
           d="M 0,0 V -7.069 L -8.709,0 h -2.159 v -10.18 h 2.471 v 6.975 L 0.319,-10.18 H 2.471 V 0 Z"
           style="fill:#f05c30;fill-opacity:1;fill-rule:nonzero;stroke:none"
           transform="matrix(1.3333333,0,0,-1.3333333,320.68947,312.9652)" />
        <path
           id="path74"
           d="m 0,0 v -10.18 h 12.675 v 2.132 H 2.471 v 1.892 h 7.782 v 2.132 H 2.471 v 1.892 H 12.675 V 0 Z"
           style="fill:#f05c30;fill-opacity:1;fill-rule:nonzero;stroke:none"
           transform="matrix(1.3333333,0,0,-1.3333333,326.53773,312.9652)" />
        <path
           id="path75"
           d="M 0,0 -4.026,-4.569 -8.056,0 h -3.118 l 5.925,-6.702 v -3.478 h 2.471 v 3.509 L 3.125,0 Z"
           style="fill:#f05c30;fill-opacity:1;fill-rule:nonzero;stroke:none"
           transform="matrix(1.3333333,0,0,-1.3333333,360.41347,312.9652)" />
        <path
           id="path76"
           d="m 0,0 v 10.181 h 9.216 c 1.776,0 3.001,-0.785 3.64,-1.9 0.362,-0.639 0.486,-1.35 0.486,-2.001 0,-0.921 -0.247,-1.936 -1.096,-2.749 C 11.941,3.242 11.579,2.988 11.144,2.799 L 13.864,0 H 10.622 L 8.273,2.429 H 2.474 V 0 Z m 2.474,4.562 h 6.728 c 0.499,0 0.861,0.129 1.173,0.433 0.356,0.341 0.493,0.805 0.493,1.314 0,0.499 -0.137,0.971 -0.493,1.312 C 10.071,7.912 9.701,8.048 9.202,8.048 H 2.474 Z"
           style="fill:#f05c30;fill-opacity:1;fill-rule:nonzero;stroke:none"
           transform="matrix(1.3333333,0,0,-1.3333333,375.01947,326.53867)"
           clip-path="url(#clipPath40)" />
        <path
           id="path77"
           d="m 0,0 v -10.18 h 12.675 v 2.132 H 2.471 v 1.892 h 7.782 v 2.132 H 2.471 v 1.892 H 12.675 V 0 Z"
           style="fill:#f05c30;fill-opacity:1;fill-rule:nonzero;stroke:none"
           transform="matrix(1.3333333,0,0,-1.3333333,395.57227,312.9652)" />
        <path
           id="path78"
           d="M 0,0 -5.083,-7.605 -10.172,0 h -2.511 v -10.173 h 2.474 v 5.953 l 3.98,-5.96 h 2.269 l 3.997,5.975 v -5.968 H 2.509 V 0 Z"
           style="fill:#f05c30;fill-opacity:1;fill-rule:nonzero;stroke:none"
           transform="matrix(1.3333333,0,0,-1.3333333,431.93227,312.9652)" />
        <path
           id="path79"
           d="m 328.735,596.986 h 2.471 v 10.181 h -2.471 z"
           style="fill:#f05c30;fill-opacity:1;fill-rule:nonzero;stroke:none"
           transform="matrix(1.3333333,0,0,-1.3333333,0,1122.52)" />
        <path
           id="path80"
           d="m 0,0 v -2.132 h 5.033 v -8.048 h 2.579 v 8.048 h 5.063 V 0 Z"
           style="fill:#f05c30;fill-opacity:1;fill-rule:nonzero;stroke:none"
           transform="matrix(1.3333333,0,0,-1.3333333,443.6784,312.9652)" />
        <path
           id="path81"
           d="m 0,0 v -2.132 h 5.031 v -8.048 h 2.581 v 8.048 h 5.061 V 0 Z"
           style="fill:#f05c30;fill-opacity:1;fill-rule:nonzero;stroke:none"
           transform="matrix(1.3333333,0,0,-1.3333333,462.6472,312.9652)" />
        <path
           id="path82"
           d="m 0,0 -6.498,-10.18 h 2.812 l 1.22,1.893 H 5.509 L 6.721,-10.18 H 9.533 L 3.037,0 Z m 1.448,-2.132 h 0.147 l 2.551,-4.024 h -5.264 z"
           style="fill:#f05c30;fill-opacity:1;fill-rule:nonzero;stroke:none"
           transform="matrix(1.3333333,0,0,-1.3333333,486.41933,312.9652)" />
        <path
           id="path83"
           d="M 0,0 V -7.069 L -8.707,0 h -2.161 v -10.18 h 2.472 v 6.975 L 0.319,-10.18 H 2.474 V 0 Z"
           style="fill:#f05c30;fill-opacity:1;fill-rule:nonzero;stroke:none"
           transform="matrix(1.3333333,0,0,-1.3333333,515.20707,312.9652)" />
        <path
           id="path84"
           d="m 0,0 v -10.18 h 12.675 v 2.132 H 2.471 v 1.892 h 7.783 v 2.132 H 2.471 v 1.892 H 12.675 V 0 Z"
           style="fill:#f05c30;fill-opacity:1;fill-rule:nonzero;stroke:none"
           transform="matrix(1.3333333,0,0,-1.3333333,540.9232,312.9652)" />
        <path
           id="path85"
           d="m 0,0 h -7.954 c -2.292,0 -3.893,0.986 -4.742,2.45 -0.486,0.835 -0.654,1.748 -0.654,2.618 0,0.877 0.168,1.784 0.654,2.626 0.834,1.456 2.436,2.487 4.742,2.487 H 0 V 8.048 h -7.954 c -1.189,0 -2.038,-0.506 -2.531,-1.363 -0.284,-0.494 -0.391,-1.045 -0.391,-1.609 0,-1.036 0.383,-2.075 1.422,-2.61 0.434,-0.233 0.941,-0.334 1.5,-0.334 H 0 Z"
           style="fill:#f05c30;fill-opacity:1;fill-rule:nonzero;stroke:none"
           transform="matrix(1.3333333,0,0,-1.3333333,538.37107,326.53867)"
           clip-path="url(#clipPath49)" />
      </g>
      <g
         id="g88"
         style="display:inline"
         inkscape:export-filename="favicon.png"
         inkscape:export-xdpi="93.68"
         inkscape:export-ydpi="93.68">
        <path
           id="path86"
           d="m 273.506,674.836 h -21.831 v 20.872 h 21.831 z"
           style="fill:#f05c30;fill-opacity:1;fill-rule:nonzero;stroke:none"
           transform="matrix(1.3333333,0,0,-1.3333333,0,1122.52)" />
        <path
           id="path87"
           d="m 0,0 h -20.086 v -20.872 h 14.97 v 8.497 L 22.769,-30.578 -5.116,-48.782 v 8.528 h -14.97 V -61.027 H 0 c 17.371,0 31.454,13.661 31.454,30.514 C 31.454,-13.661 17.371,0 0,0"
           style="fill:#f05c30;fill-opacity:1;fill-rule:nonzero;stroke:none"
           transform="matrix(1.3333333,0,0,-1.3333333,416.19267,141.3708)"
           clip-path="url(#clipPath53)" />
        <path
           id="path88"
           d="m 0,0 v 29.101 h -62.317 c -16.35,0 -29.605,-12.86 -29.605,-28.722 0,-13.251 9.252,-24.398 21.828,-27.711 v 27.103 c 0,4.764 3.982,8.626 8.894,8.626 h 39.441 V 0 Z"
           style="fill:#f05c30;fill-opacity:1;fill-rule:nonzero;stroke:none"
           transform="matrix(1.3333333,0,0,-1.3333333,458.13147,130.37533)"
           clip-path="url(#clipPath55)" />
      </g>
    </g>
  </g>
</svg>
